<svg version="1.1" id="Layer_1" xmlns="http://www.w3.org/2000/svg" xmlns:xlink="http://www.w3.org/1999/xlink" x="0px" y="0px"
	 width="100%" viewBox="0 0 575 575" enable-background="new 0 0 575 575" xml:space="preserve">
<path fill="#030303" opacity="1.000000" stroke="none" 
	d="
M323.000000,576.000000 
	C215.333328,576.000000 108.166664,576.000000 1.000000,576.000000 
	C1.000000,384.333344 1.000000,192.666672 1.000000,1.000000 
	C192.666672,1.000000 384.333344,1.000000 576.000000,1.000000 
	C576.000000,192.666672 576.000000,384.333344 576.000000,576.000000 
	C491.833344,576.000000 407.666656,576.000000 323.000000,576.000000 
M400.660400,87.320305 
	C394.440887,84.228683 388.221405,81.137062 381.467621,77.573090 
	C377.023590,75.816742 372.579590,74.060402 367.570099,71.955612 
	C327.411591,57.267284 286.297485,54.302208 244.639801,63.473579 
	C120.808701,90.736290 45.647972,213.110229 76.739410,336.234528 
	C102.824013,439.531403 203.166641,511.021912 309.235809,501.183167 
	C379.569824,494.659119 435.245911,462.178314 475.598572,404.027344 
	C485.886902,389.201172 494.056091,373.189819 500.142700,355.400177 
	C500.439209,354.270874 500.735718,353.141571 501.463867,351.456573 
	C501.976013,349.637299 502.488129,347.818024 503.384979,345.470795 
	C505.018585,339.390808 507.066315,333.388428 508.222534,327.218964 
	C521.598083,255.847977 506.552826,191.582779 459.504486,135.622894 
	C443.076813,116.083595 423.655334,99.967415 400.660400,87.320305 
z"/>
<path fill="#1C9DD5" opacity="1.000000" stroke="none" 
	d="
M499.758820,355.997498 
	C494.056091,373.189819 485.886902,389.201172 475.598572,404.027344 
	C435.245911,462.178314 379.569824,494.659119 309.235809,501.183167 
	C203.166641,511.021912 102.824013,439.531403 76.739410,336.234528 
	C45.647972,213.110229 120.808701,90.736290 244.639801,63.473579 
	C286.297485,54.302208 327.411591,57.267284 367.891785,72.490326 
	C368.891479,74.492882 369.569458,75.960716 370.436310,77.837502 
	C368.518616,79.343727 366.120239,82.440338 364.823425,82.032684 
	C359.652374,80.407158 359.192932,84.203827 356.973419,87.452660 
	C362.540100,90.429008 367.475677,94.050529 373.003479,95.786705 
	C380.748291,98.219208 385.818634,103.464615 390.447815,109.117126 
	C350.567780,86.790474 308.265472,78.665352 263.375854,84.887543 
	C149.762939,100.635490 73.471497,210.474670 98.228256,322.388977 
	C118.362061,413.404968 198.750381,478.693420 291.840210,477.404144 
	C366.598999,476.368774 423.921692,442.748108 462.742676,378.650726 
	C468.996735,368.324585 473.229309,356.774109 478.739746,345.938965 
	C479.565643,347.199219 480.710297,348.525909 480.429321,349.388000 
	C477.302124,358.982880 475.197906,369.226135 470.233154,377.797394 
	C466.872650,383.599030 467.357208,385.286621 472.697357,387.393097 
	C473.000397,387.512634 473.265228,387.735107 473.538513,387.923218 
	C476.099792,389.686096 478.350281,389.996002 480.147644,386.813446 
	C483.137756,381.519012 485.933807,376.079468 489.365204,371.081116 
	C492.097534,367.101044 495.525208,363.685608 496.319733,358.566071 
	C496.476440,357.556305 498.562531,356.845947 499.758820,355.997498 
M359.133881,78.776260 
	C359.014740,78.841362 358.895569,78.906464 358.776428,78.971565 
	C358.864502,79.070053 358.952576,79.168541 359.040619,79.267014 
	C359.116882,79.154007 359.193146,79.041008 359.133881,78.776260 
z"/>
<path fill="#1E9ED6" opacity="1.000000" stroke="none" 
	d="
M390.795502,109.181763 
	C385.818634,103.464615 380.748291,98.219208 373.003479,95.786705 
	C367.475677,94.050529 362.540100,90.429008 356.973419,87.452660 
	C359.192932,84.203827 359.652374,80.407158 364.823425,82.032684 
	C366.120239,82.440338 368.518616,79.343727 370.436310,77.837502 
	C369.569458,75.960716 368.891479,74.492882 368.174530,72.664551 
	C372.579590,74.060402 377.023590,75.816742 381.698029,78.191284 
	C382.048492,82.040085 382.168549,85.270683 382.288605,88.501274 
	C382.734192,88.876884 383.179810,89.252487 383.625427,89.628090 
	C387.996155,84.391655 392.316376,84.369568 396.940948,88.200783 
	C397.698853,88.828644 399.651978,88.013763 401.052673,87.865700 
	C423.655334,99.967415 443.076813,116.083595 459.504486,135.622894 
	C506.552826,191.582779 521.598083,255.847977 508.222534,327.218964 
	C507.066315,333.388428 505.018585,339.390808 502.874878,345.828308 
	C499.820648,347.647705 498.115479,349.301453 501.032227,352.012268 
	C500.735718,353.141571 500.439209,354.270874 499.950745,355.698853 
	C498.562531,356.845947 496.476440,357.556305 496.319733,358.566071 
	C495.525208,363.685608 492.097534,367.101044 489.365204,371.081116 
	C485.933807,376.079468 483.137756,381.519012 480.147644,386.813446 
	C478.350281,389.996002 476.099792,389.686096 473.538513,387.923218 
	C473.265228,387.735107 473.000397,387.512634 472.697357,387.393097 
	C467.357208,385.286621 466.872650,383.599030 470.233154,377.797394 
	C475.197906,369.226135 477.302124,358.982880 480.429321,349.388000 
	C480.710297,348.525909 479.565643,347.199219 478.766937,345.545471 
	C479.699554,341.335999 480.948303,337.669403 482.473846,333.966370 
	C482.841583,332.955627 482.932556,331.981293 483.005676,330.607422 
	C484.184052,324.807343 485.380310,319.406891 486.752136,313.891907 
	C486.940704,313.181122 486.953644,312.584808 486.914825,311.561249 
	C487.448212,306.424561 488.033356,301.715149 488.837646,296.822144 
	C489.022461,295.420349 488.988037,294.202148 488.861176,292.523987 
	C488.842255,285.044189 488.915771,278.024353 489.163879,270.736816 
	C489.117676,268.976532 488.896820,267.483887 488.519714,265.570862 
	C488.242889,262.766602 488.122314,260.382812 488.153778,257.787628 
	C488.058167,256.714508 487.810516,255.852737 487.409119,254.598557 
	C487.150696,252.811996 487.045990,251.417831 487.068512,249.856125 
	C486.987915,249.122147 486.780151,248.555710 486.412903,247.614258 
	C486.160339,246.163101 486.067261,245.086960 486.161896,243.697235 
	C485.627045,240.589111 484.904480,237.794586 483.989136,234.685913 
	C483.676361,233.654205 483.556427,232.936615 483.685364,231.952255 
	C485.692963,228.181854 483.412415,226.105713 481.006165,223.679932 
	C479.981903,220.652252 479.169373,217.943817 478.582611,214.987961 
	C479.111603,211.162262 478.849335,207.825974 474.828033,205.735718 
	C466.980530,191.684601 459.371338,177.894150 451.956360,163.839722 
	C450.215973,159.922211 448.915009,155.696304 446.228394,152.722092 
	C438.034973,143.651611 429.832703,134.455872 420.613983,126.488991 
	C413.826874,120.623497 405.449585,116.593315 397.734039,111.820999 
	C397.354797,111.586418 396.526642,112.077591 395.619720,112.176079 
	C394.880493,111.768768 394.429108,111.416199 393.833801,110.761604 
	C392.721191,110.029625 391.752411,109.599678 390.802063,109.145401 
	C390.820465,109.121078 390.795502,109.181763 390.795502,109.181763 
z"/>
<path fill="#1C9DD5" opacity="1.000000" stroke="none" 
	d="
M400.856537,87.593002 
	C399.651978,88.013763 397.698853,88.828644 396.940948,88.200783 
	C392.316376,84.369568 387.996155,84.391655 383.625427,89.628090 
	C383.179810,89.252487 382.734192,88.876884 382.288605,88.501274 
	C382.168549,85.270683 382.048492,82.040085 381.965149,78.427467 
	C388.221405,81.137062 394.440887,84.228683 400.856537,87.593002 
z"/>
<path fill="#1C9DD5" opacity="1.000000" stroke="none" 
	d="
M501.248047,351.734436 
	C498.115479,349.301453 499.820648,347.647705 502.682526,346.092285 
	C502.488129,347.818024 501.976013,349.637299 501.248047,351.734436 
z"/>
<path fill="#030304" opacity="1.000000" stroke="none" 
	d="
M488.001770,257.998993 
	C488.122314,260.382812 488.242889,262.766602 488.413452,265.923523 
	C488.638733,268.132599 488.813995,269.568542 488.989258,271.004486 
	C488.915771,278.024353 488.842255,285.044189 488.714172,292.834290 
	C488.645874,294.738281 488.632172,295.871979 488.618469,297.005707 
	C488.033356,301.715149 487.448212,306.424561 486.754700,311.779907 
	C486.623077,312.952698 486.599792,313.479553 486.576538,314.006409 
	C485.380310,319.406891 484.184052,324.807343 482.800293,330.854980 
	C482.474243,332.335724 482.335663,333.169250 482.197083,334.002808 
	C480.948303,337.669403 479.699554,341.335999 478.423584,345.396118 
	C473.229309,356.774109 468.996735,368.324585 462.742676,378.650726 
	C423.921692,442.748108 366.598999,476.368774 291.840210,477.404144 
	C198.750381,478.693420 118.362061,413.404968 98.228256,322.388977 
	C73.471497,210.474670 149.762939,100.635490 263.375854,84.887543 
	C308.265472,78.665352 350.567780,86.790474 390.447815,109.117126 
	C390.795502,109.181763 390.820465,109.121078 390.988525,109.403183 
	C392.096985,110.144745 393.037323,110.604195 393.977692,111.063637 
	C394.429108,111.416199 394.880493,111.768768 395.810547,112.445877 
	C418.055023,126.342606 436.167511,143.862686 451.762146,164.103699 
	C459.371338,177.894150 466.980530,191.684601 474.841888,206.102051 
	C476.181641,209.564514 477.269226,212.399948 478.356812,215.235382 
	C479.169373,217.943817 479.981903,220.652252 480.994049,224.045700 
	C481.941284,227.226807 482.688904,229.722931 483.436523,232.219040 
	C483.556427,232.936615 483.676361,233.654205 483.954346,235.081818 
	C484.732971,238.531509 485.353577,241.271164 485.974182,244.010834 
	C486.067261,245.086960 486.160339,246.163101 486.338715,247.876556 
	C486.596466,249.017136 486.768890,249.520401 486.941284,250.023682 
	C487.045990,251.417831 487.150696,252.811996 487.332733,254.903046 
	C487.607300,256.399628 487.804535,257.199310 488.001770,257.998993 
M149.690125,398.433197 
	C150.129532,398.909973 150.568939,399.386719 151.868774,400.015717 
	C155.541367,399.950012 159.213959,399.884308 163.695480,400.007538 
	C170.860306,400.021576 178.136169,399.247955 185.163345,400.238464 
	C195.137573,401.644318 199.433640,397.245911 203.490265,388.584106 
	C231.109253,329.611420 259.342896,270.926544 287.394836,212.156769 
	C288.514191,209.811691 289.802277,207.547134 291.354584,204.592499 
	C292.520905,206.863190 293.311951,208.308075 294.018463,209.793167 
	C303.249603,229.196732 312.537109,248.574173 321.616577,268.048523 
	C322.962646,270.935669 324.578583,271.887360 327.676880,271.848877 
	C341.171906,271.681305 354.669983,271.765198 368.166840,271.725037 
	C369.397339,271.721375 370.627106,271.485474 371.990936,271.343506 
	C371.793091,270.451080 371.773834,269.945404 371.574615,269.525085 
	C351.386688,226.933578 331.213379,184.335068 310.864929,141.820389 
	C310.170319,140.369110 307.735138,138.949692 306.068268,138.897842 
	C296.745880,138.607925 287.403229,138.951050 278.082489,138.635361 
	C274.171326,138.502869 272.250916,139.711838 270.555481,143.321594 
	C241.732635,204.688400 212.749420,265.979919 183.788483,327.281860 
	C173.904022,348.204346 163.983444,369.109833 153.581924,390.487000 
	C152.433090,393.004425 151.284241,395.521820 149.690125,398.433197 
M320.500305,283.825745 
	C304.168823,283.814331 287.836273,283.895264 271.506683,283.713989 
	C268.223114,283.677551 266.489227,284.571106 265.075500,287.675171 
	C259.483307,299.953674 253.552460,312.077759 247.774872,324.272278 
	C247.250366,325.379303 246.923721,326.580139 246.439056,327.920288 
	C297.494904,327.920288 348.056946,327.920288 399.118622,327.920288 
	C398.214508,325.798615 397.566467,324.125854 396.801971,322.508148 
	C391.392822,311.062653 385.832642,299.685974 380.617401,288.153107 
	C379.188171,284.992493 377.570496,283.764771 373.993103,283.802643 
	C356.497345,283.988037 338.998230,283.852722 320.500305,283.825745 
M372.768036,376.796875 
	C375.739746,383.130554 378.853485,389.402954 381.622559,395.823975 
	C382.983734,398.980286 384.726288,400.259338 388.347687,400.198151 
	C402.008362,399.967346 415.675751,400.140533 429.340607,400.133087 
	C430.560913,400.132416 431.781128,399.920166 432.981964,399.807983 
	C432.944946,399.032227 433.027588,398.665039 432.900360,398.397797 
	C424.164124,380.052704 415.489319,361.677094 406.518707,343.447083 
	C405.757660,341.900513 403.025452,340.475983 401.184326,340.444702 
	C388.023895,340.221313 374.856995,340.363831 361.692291,340.419830 
	C359.940491,340.427277 358.189453,340.602722 355.571930,340.748627 
	C361.433929,353.057404 366.927246,364.591949 372.768036,376.796875 
z"/>
<path fill="#1E9ED6" opacity="1.000000" stroke="none" 
	d="
M359.201660,78.852127 
	C359.193146,79.041008 359.116882,79.154007 359.040649,79.267014 
	C358.952576,79.168541 358.864502,79.070053 358.776428,78.971573 
	C358.895569,78.906464 359.014740,78.841362 359.201660,78.852127 
z"/>
<path fill="#1C9DD5" opacity="1.000000" stroke="none" 
	d="
M451.956360,163.839722 
	C436.167511,143.862686 418.055023,126.342606 396.098389,112.500626 
	C396.526642,112.077591 397.354797,111.586418 397.734039,111.820999 
	C405.449585,116.593315 413.826874,120.623497 420.613983,126.488991 
	C429.832703,134.455872 438.034973,143.651611 446.228394,152.722092 
	C448.915009,155.696304 450.215973,159.922211 451.956360,163.839722 
z"/>
<path fill="#1C9DD5" opacity="1.000000" stroke="none" 
	d="
M478.582581,214.987961 
	C477.269226,212.399948 476.181641,209.564514 475.080200,206.362717 
	C478.849335,207.825974 479.111603,211.162262 478.582581,214.987961 
z"/>
<path fill="#1C9DD5" opacity="1.000000" stroke="none" 
	d="
M486.161896,243.697235 
	C485.353577,241.271164 484.732971,238.531509 484.147156,235.395950 
	C484.904480,237.794586 485.627045,240.589111 486.161896,243.697235 
z"/>
<path fill="#1C9DD5" opacity="1.000000" stroke="none" 
	d="
M483.685364,231.952255 
	C482.688904,229.722931 481.941284,227.226807 481.205780,224.364929 
	C483.412415,226.105713 485.692963,228.181854 483.685364,231.952255 
z"/>
<path fill="#1C9DD5" opacity="1.000000" stroke="none" 
	d="
M489.163879,270.736816 
	C488.813995,269.568542 488.638733,268.132599 488.569702,266.343964 
	C488.896820,267.483887 489.117676,268.976532 489.163879,270.736816 
z"/>
<path fill="#1C9DD5" opacity="1.000000" stroke="none" 
	d="
M482.473877,333.966370 
	C482.335663,333.169250 482.474243,332.335724 482.818176,331.254578 
	C482.932556,331.981293 482.841583,332.955627 482.473877,333.966370 
z"/>
<path fill="#1C9DD5" opacity="1.000000" stroke="none" 
	d="
M488.837646,296.822144 
	C488.632172,295.871979 488.645874,294.738281 488.806580,293.294250 
	C488.988037,294.202148 489.022461,295.420349 488.837646,296.822144 
z"/>
<path fill="#1C9DD5" opacity="1.000000" stroke="none" 
	d="
M488.153748,257.787628 
	C487.804535,257.199310 487.607300,256.399628 487.486450,255.295456 
	C487.810516,255.852737 488.058167,256.714508 488.153748,257.787628 
z"/>
<path fill="#1C9DD5" opacity="1.000000" stroke="none" 
	d="
M393.833801,110.761612 
	C393.037323,110.604195 392.096985,110.144745 390.970154,109.427505 
	C391.752411,109.599678 392.721191,110.029625 393.833801,110.761612 
z"/>
<path fill="#1C9DD5" opacity="1.000000" stroke="none" 
	d="
M486.752136,313.891907 
	C486.599792,313.479553 486.623077,312.952698 486.806458,312.207153 
	C486.953644,312.584808 486.940704,313.181122 486.752136,313.891907 
z"/>
<path fill="#1C9DD5" opacity="1.000000" stroke="none" 
	d="
M487.068481,249.856125 
	C486.768890,249.520401 486.596466,249.017136 486.498230,248.251587 
	C486.780151,248.555710 486.987915,249.122147 487.068481,249.856125 
z"/>
<path fill="#1CA0D7" opacity="1.000000" stroke="none" 
	d="
M154.079376,390.023071 
	C163.983444,369.109833 173.904022,348.204346 183.788483,327.281860 
	C212.749420,265.979919 241.732635,204.688400 270.555481,143.321594 
	C272.250916,139.711838 274.171326,138.502869 278.082489,138.635361 
	C287.403229,138.951050 296.745880,138.607925 306.068268,138.897842 
	C307.735138,138.949692 310.170319,140.369110 310.864929,141.820389 
	C331.213379,184.335068 351.386688,226.933578 371.574615,269.525085 
	C371.773834,269.945404 371.793091,270.451080 371.990936,271.343506 
	C370.627106,271.485474 369.397339,271.721375 368.166840,271.725037 
	C354.669983,271.765198 341.171906,271.681305 327.676880,271.848877 
	C324.578583,271.887360 322.962646,270.935669 321.616577,268.048523 
	C312.537109,248.574173 303.249603,229.196732 294.018463,209.793167 
	C293.311951,208.308075 292.520905,206.863190 291.354584,204.592499 
	C289.802277,207.547134 288.514191,209.811691 287.394836,212.156769 
	C259.342896,270.926544 231.109253,329.611420 203.490265,388.584106 
	C199.433640,397.245911 195.137573,401.644318 185.163345,400.238464 
	C178.136169,399.247955 170.860306,400.021576 163.288269,399.499817 
	C161.906372,394.079742 158.907120,391.154205 154.079376,390.023071 
z"/>
<path fill="#1BA1D9" opacity="1.000000" stroke="none" 
	d="
M321.000305,283.828278 
	C338.998230,283.852722 356.497345,283.988037 373.993103,283.802643 
	C377.570496,283.764771 379.188171,284.992493 380.617401,288.153107 
	C385.832642,299.685974 391.392822,311.062653 396.801971,322.508148 
	C397.566467,324.125854 398.214508,325.798615 399.118622,327.920288 
	C348.056946,327.920288 297.494904,327.920288 246.439056,327.920288 
	C246.923721,326.580139 247.250366,325.379303 247.774872,324.272278 
	C253.552460,312.077759 259.483307,299.953674 265.075500,287.675171 
	C266.489227,284.571106 268.223114,283.677551 271.506683,283.713989 
	C287.836273,283.895264 304.168823,283.814331 321.000305,283.828278 
z"/>
<path fill="#1B9ED6" opacity="1.000000" stroke="none" 
	d="
M372.594299,376.461670 
	C366.927246,364.591949 361.433929,353.057404 355.571930,340.748627 
	C358.189453,340.602722 359.940491,340.427277 361.692291,340.419830 
	C374.856995,340.363831 388.023895,340.221313 401.184326,340.444702 
	C403.025452,340.475983 405.757660,341.900513 406.518707,343.447083 
	C415.489319,361.677094 424.164124,380.052704 432.900360,398.397797 
	C433.027588,398.665039 432.944946,399.032227 432.981964,399.807983 
	C431.781128,399.920166 430.560913,400.132416 429.340607,400.133087 
	C415.675751,400.140533 402.008362,399.967346 388.347687,400.198151 
	C384.726288,400.259338 382.983734,398.980286 381.622559,395.823975 
	C378.853485,389.402954 375.739746,383.130554 372.594299,376.461670 
z"/>
<path fill="#1EA8E1" opacity="1.000000" stroke="none" 
	d="
M153.830658,390.255035 
	C158.907120,391.154205 161.906372,394.079742 162.883804,399.405334 
	C159.213959,399.884308 155.541367,399.950012 151.374405,399.691956 
	C150.631821,398.925201 150.383606,398.482208 150.135391,398.039246 
	C151.284241,395.521820 152.433090,393.004425 153.830658,390.255035 
z"/>
<path fill="#1CA0D7" opacity="1.000000" stroke="none" 
	d="
M149.912750,398.236206 
	C150.383606,398.482208 150.631821,398.925201 150.944183,399.615845 
	C150.568939,399.386719 150.129532,398.909973 149.912750,398.236206 
z"/>
</svg>