<svg xmlns="http://www.w3.org/2000/svg" viewBox="0 0 128 78"><g fill="none"><path fill="#44A8B3" d="M64.004 0C46.67 0 35.336 9.333 30 28c6.667-9.333 14.667-12.667 24-10c5.217 1.304 8.95 5.07 13.03 9.19c6.68 6.7 14.24 14.31 30.97 14.31c17.33 0 28.67-9.33 34-28c-6.67 9.33-14.67 12.67-24 10c-5.22-1.3-8.95-5.07-13.03-9.19C88.29 7.31 80.73 0 64.004 0zm-34 36c-17.33 0-28.67 9.33-34 28c6.67-9.33 14.67-12.67 24-10c5.22 1.3 8.95 5.07 13.03 9.19c6.68 6.7 14.24 14.31 30.97 14.31c17.33 0 28.67-9.33 34-28c-6.67 9.33-14.67 12.67-24 10c-5.22-1.3-8.95-5.07-13.03-9.19C39.71 43.31 32.15 36 14.004 36z"/></g></svg>